<?xml version="1.0" encoding="UTF-8" standalone="no"?>
<!-- Created with Inkscape (http://www.inkscape.org/) -->

<svg
   width="210mm"
   height="297mm"
   viewBox="0 0 210 297"
   version="1.1"
   id="svg5"
   inkscape:version="1.1.1 (3bf5ae0d25, 2021-09-20)"
   sodipodi:docname="koila.svg"
   xmlns:inkscape="http://www.inkscape.org/namespaces/inkscape"
   xmlns:sodipodi="http://sodipodi.sourceforge.net/DTD/sodipodi-0.dtd"
   xmlns="http://www.w3.org/2000/svg"
   xmlns:svg="http://www.w3.org/2000/svg">
  <sodipodi:namedview
     id="namedview7"
     pagecolor="#ffffff"
     bordercolor="#666666"
     borderopacity="1.0"
     inkscape:pageshadow="2"
     inkscape:pageopacity="0.0"
     inkscape:pagecheckerboard="0"
     inkscape:document-units="mm"
     showgrid="false"
     inkscape:zoom="0.35355339"
     inkscape:cx="-84.852814"
     inkscape:cy="564.27121"
     inkscape:window-width="1547"
     inkscape:window-height="938"
     inkscape:window-x="56"
     inkscape:window-y="50"
     inkscape:window-maximized="0"
     inkscape:current-layer="layer1"
     inkscape:rotation="-90" />
  <defs
     id="defs2">
    <rect
       x="96.766867"
       y="538.01417"
       width="371.17392"
       height="198.72346"
       id="rect1287" />
  </defs>
  <g
     inkscape:label="Layer 1"
     inkscape:groupmode="layer"
     id="layer1">
    <g
       id="g19407"
       transform="matrix(0,0.60399292,-0.57699159,0,111.37867,340.57838)"
       inkscape:export-filename="/home/forerunner/Documents/koila.png"
       inkscape:export-xdpi="96"
       inkscape:export-ydpi="96">
      <g
         id="g19112"
         transform="matrix(1.1638476,0,0,1,-221.16491,-134.47875)">
        <ellipse
           id="path16089"
           cx="-127.63113"
           cy="152.26775"
           rx="40.223251"
           ry="32.836395"
           style="fill:#666666;stroke-width:0.264583" />
        <g
           id="g16807"
           transform="translate(-50.073171)">
          <ellipse
             id="path16089-5"
             cx="-152.78983"
             cy="63.575588"
             rx="24.761684"
             ry="14.046362"
             style="fill:#666666;stroke-width:0.135774"
             transform="matrix(0.91207751,-0.41001783,0.39925304,0.91684078,0,0)" />
          <ellipse
             id="ellipse16355"
             cx="-154.4335"
             cy="67.616074"
             rx="17.63553"
             ry="9.5300245"
             style="fill:#999999;stroke-width:0.0943813"
             transform="matrix(0.92256347,-0.38584536,0.42392685,0.90569643,0,0)"
             inkscape:transform-center-x="26.136769"
             inkscape:transform-center-y="-0.65389862" />
          <ellipse
             id="ellipse16357"
             cx="-10.242394"
             cy="126.44703"
             rx="24.761684"
             ry="14.046362"
             style="fill:#666666;stroke-width:0.135774"
             transform="matrix(-0.91207751,-0.41001783,-0.39925304,0.91684078,0,0)"
             inkscape:transform-center-x="-36.280985"
             inkscape:transform-center-y="-0.97564231" />
          <ellipse
             id="ellipse16449"
             cx="-11.396322"
             cy="126.76907"
             rx="18.391508"
             ry="10.213616"
             style="fill:#999999;stroke-width:0.0997796"
             transform="matrix(-0.91680532,-0.39933446,-0.40993509,0.9121147,0,0)"
             inkscape:transform-center-x="-27.087044"
             inkscape:transform-center-y="-0.70577054" />
        </g>
        <ellipse
           style="fill:#999999;stroke-width:0.248076"
           id="path16853"
           cx="-127.63113"
           cy="177.2318"
           rx="14.244682"
           ry="8.099988" />
        <g
           id="g17438"
           transform="matrix(1,0,0,1.1765722,-3.0767199,-101.74472)">
          <path
             id="path16719"
             style="fill:#333333;stroke-width:0.309511"
             d="m -124.53964,205.66872 a 13.365877,26.180916 0 0 0 -13.36611,26.18076 13.365877,26.180916 0 0 0 0.0848,2.53748 l 14.9841,3.65102 11.61841,-4.85606 a 13.365877,26.180916 0 0 0 0.0444,-1.33244 13.365877,26.180916 0 0 0 -13.36559,-26.18076 z" />
          <ellipse
             style="fill:#333333;stroke-width:0.267334"
             id="path17244"
             cx="-124.57417"
             cy="233.12465"
             rx="13.36098"
             ry="7.2496858"
             transform="matrix(0.99999731,-0.00231782,0,1,0,0)" />
        </g>
        <g
           id="g19097"
           transform="translate(0.25237968)">
          <ellipse
             style="fill:#cccccc;stroke-width:0.264583"
             id="path19009"
             cx="-149.44475"
             cy="150.51173"
             rx="5.0897617"
             ry="5.0941467" />
          <ellipse
             style="fill:#cccccc;stroke-width:0.264583"
             id="ellipse19093"
             cx="-106.32227"
             cy="149.51562"
             rx="5.0897617"
             ry="5.0941467" />
        </g>
      </g>
      <path
         id="text1285"
         style="font-style:normal;font-weight:normal;font-size:40px;line-height:1.25;font-family:sans-serif;white-space:pre;shape-inside:url(#rect1287);fill:#000000;fill-opacity:1;stroke:none;stroke-width:1.34118"
         d="m -284.12443,-43.799522 c -4.39804,-0.04931 -8.10898,1.035674 -11.13264,3.254582 -3.09239,2.169599 -4.63849,4.856951 -4.63849,8.06204 0.0687,3.205089 1.61484,5.917029 4.63849,8.135937 3.02366,2.218908 6.7346,3.328479 11.13264,3.328479 4.32935,0 8.04029,-1.109571 11.13266,-3.328479 3.16111,-2.218908 4.74131,-4.930848 4.74131,-8.135937 0,-3.254398 -1.5802,-5.966339 -4.74131,-8.135937 -3.16111,-2.12029 -6.87202,-3.180685 -11.13266,-3.180685 z m -210.28223,1.923397 c -4.26064,0 -7.90282,1.084466 -10.92647,3.254065 -3.02366,2.169599 -4.53512,4.73401 -4.53512,7.692553 v 70.708861 c 0,3.057162 1.51146,5.670751 4.53512,7.84035 3.02365,2.120289 6.66583,3.180167 10.92647,3.180167 h 0.10334 c 4.12316,0.04931 7.6966,-1.010568 10.72029,-3.180167 3.02365,-2.169599 4.53561,-4.783188 4.53561,-7.84035 V 17.36832 h 0.20569 c 1.99287,-1.676508 4.4327,-2.489986 7.31893,-2.440678 2.95495,0.09862 5.2914,1.035555 7.0094,2.810682 l 28.03755,28.771887 c 2.81752,2.859926 6.32219,4.28966 10.51409,4.28966 h 0.41238 c 5.01653,0 8.7616,-1.626957 11.2355,-4.881356 2.47389,-3.205088 2.33641,-6.336064 -0.41238,-9.393224 L -443.48525,4.9427222 c -4.39803,-4.83228834 -4.39803,-9.7879595 0,-14.8667929 l 14.84355,-17.0857783 c 2.61136,-3.057162 2.74884,-6.188136 0.41238,-9.393225 -2.33645,-3.205089 -6.04739,-4.807459 -11.13266,-4.807459 h -0.30954 c -4.6042,0 -8.17763,1.405147 -10.72028,4.215764 l -24.32666,24.112223 c -0.61849,0.641017 -1.47709,0.813652 -2.57659,0.517798 -1.16824,-0.246546 -1.75237,-1.08513 -1.75237,-2.515092 v -16.049667 c 0,-2.958543 -1.51196,-5.522954 -4.53561,-7.692553 -3.02369,-2.169599 -6.59713,-3.254065 -10.72029,-3.254065 z m 252.8538,0 c -4.32933,0 -7.93689,1.059878 -10.82311,3.180168 -2.95494,2.120289 -4.43229,4.709289 -4.43229,7.76645 v 70.708861 c 0,3.057162 1.51146,5.670751 4.53512,7.84035 3.02367,2.120289 6.5971,3.180167 10.72028,3.180167 h 0.30954 c 4.39806,0 8.07436,-1.059878 11.0293,-3.180167 2.95495,-2.120292 4.43229,-4.733878 4.43229,-7.84035 v -70.708861 c 0.0687,-3.057161 -1.40862,-5.646161 -4.43229,-7.76645 -3.02366,-2.12029 -6.69996,-3.180168 -11.0293,-3.180168 z m 72.67102,24.407812 c -12.50697,0 -23.15853,3.328197 -31.95464,9.9849203 -8.79611,6.65672321 -13.19403,14.7187797 -13.19403,24.1861217 0,9.418029 4.39792,17.455499 13.19403,24.112222 8.79611,6.656724 19.44767,9.98492 31.95464,9.98492 3.5047,0 8.65886,-1.577782 15.4621,-4.733562 1.64927,-0.788946 3.40162,-1.08452 5.25704,-0.887283 1.85543,0.197236 3.95153,1.183349 6.28799,2.958475 2.33647,1.775127 4.39793,2.66237 6.18464,2.66237 h 12.36927 c 1.64927,0 3.05838,-0.394446 4.22661,-1.183391 1.23696,-0.788945 1.85519,-1.824234 1.85519,-3.106269 V -7.4833927 c 0,-2.1695989 -1.06485,-4.0680603 -3.19515,-5.6952593 -2.13031,-1.429963 -4.70765,-2.144572 -7.73132,-2.144572 h -7.93698 c -3.02366,0 -5.53173,0.714609 -7.52461,2.144572 -2.26774,1.627199 -3.40185,3.5256604 -3.40185,5.6952593 -4.05446,-6.6567233 -11.33883,-9.9849203 -21.85293,-9.9849203 z m -113.59358,2.514575 c -4.12318,0 -7.73072,1.084983 -10.82312,3.254582 -3.02366,2.1695986 -4.53565,4.7831864 -4.53565,7.8403481 V 39.779354 c 0,3.057162 1.47736,5.670751 4.4323,7.84035 3.02366,2.120289 6.66584,3.180167 10.92647,3.180167 h 0.20619 c 4.12317,0.04931 7.6966,-1.010568 10.72026,-3.180167 3.02367,-2.169599 4.53565,-4.783188 4.53565,-7.84035 V -3.8588079 c 0,-3.0571617 -1.51198,-5.6707495 -4.53565,-7.8403481 -3.02366,-2.169599 -6.59709,-3.254582 -10.72026,-3.254582 z m 116.83162,9.5312013 c 2.67765,-0.014831 5.30904,0.3340314 7.89461,1.045931 5.90989,1.57789 9.48332,3.77192744 10.72028,6.5825438 V 27.205446 c 0,5.473306 -3.26432,9.023829 -9.79269,10.65103 -3.22982,0.690327 -6.42487,0.912137 -9.58598,0.665591 -5.36013,0.09862 -9.93017,-1.651797 -13.70975,-5.251358 -3.77958,-3.599563 -5.66943,-7.963566 -5.66943,-13.091707 v -4.881356 c 0,-10.4535208 3.19558,-16.740575 9.5865,-18.8608646 3.5949,-1.2203994 7.11377,-1.8402493 10.55646,-1.8593181 z" />
    </g>
  </g>
</svg>
